<?xml version="1.0" encoding="UTF-8" standalone="no"?>
<!-- Created with Inkscape (http://www.inkscape.org/) -->

<svg
   width="14mm"
   height="14mm"
   viewBox="0 0 14 14"
   version="1.1"
   id="svg14592"
   inkscape:version="1.1.2 (0a00cf5339, 2022-02-04)"
   sodipodi:docname="bitchute.svg"
   xmlns:inkscape="http://www.inkscape.org/namespaces/inkscape"
   xmlns:sodipodi="http://sodipodi.sourceforge.net/DTD/sodipodi-0.dtd"
   xmlns="http://www.w3.org/2000/svg"
   xmlns:svg="http://www.w3.org/2000/svg">
  <sodipodi:namedview
     id="namedview14594"
     pagecolor="#ffffff"
     bordercolor="#999999"
     borderopacity="1"
     inkscape:pageshadow="0"
     inkscape:pageopacity="0"
     inkscape:pagecheckerboard="0"
     inkscape:document-units="mm"
     showgrid="false"
     width="14mm"
     inkscape:showpageshadow="false"
     showborder="false"
     inkscape:zoom="5.3921852"
     inkscape:cx="29.487118"
     inkscape:cy="33.659823"
     inkscape:window-width="1360"
     inkscape:window-height="744"
     inkscape:window-x="0"
     inkscape:window-y="16"
     inkscape:window-maximized="0"
     inkscape:current-layer="layer1" />
  <defs
     id="defs14589" />
  <g
     inkscape:label="Слой 1"
     inkscape:groupmode="layer"
     id="layer1">
    <path
       id="path14854"
       style="fill:#f14038;fill-opacity:1;stroke:#fc0000;stroke-width:0;stroke-linecap:round;stroke-linejoin:round"
       d="m 6.9088257,1.8818523 a 5.1188739,5.1188684 0 0 0 -5.027323,5.1788105 5.1188739,5.1188684 0 0 0 5.148901,5.0580262 5.1188739,5.1188684 0 0 0 5.0884653,-5.1188156 l -0.0014,-0.121578 A 5.1188739,5.1188684 0 0 0 12.098887,6.6826056 L 9.8083109,7.2995851 A 2.8443024,2.8442995 0 0 1 7.0106876,9.8402886 2.8443024,2.8442995 0 0 1 4.7067009,8.6737369 L 2.7160103,9.2099864 C 2.6175629,9.2165083 2.5949683,9.1722035 2.639869,9.0825847 L 4.2692658,7.7682528 A 2.8443024,2.8442995 0 0 1 4.1497161,7.0298712 2.8443024,2.8442995 0 0 1 6.9431923,4.1522249 2.8443024,2.8442995 0 0 1 8.324492,4.4971086 L 10.182044,2.9987313 A 5.1188739,5.1188684 0 0 0 6.9088718,1.8818523 Z" />
  </g>
</svg>
