<?xml version="1.0" encoding="UTF-8" standalone="no"?>
<!-- Created with Inkscape (http://www.inkscape.org/) -->

<svg
   width="14mm"
   height="14mm"
   viewBox="0 0 14 14"
   version="1.1"
   id="svg22005"
   inkscape:version="1.1.2 (0a00cf5339, 2022-02-04)"
   sodipodi:docname="chatopenai.svg"
   xmlns:inkscape="http://www.inkscape.org/namespaces/inkscape"
   xmlns:sodipodi="http://sodipodi.sourceforge.net/DTD/sodipodi-0.dtd"
   xmlns="http://www.w3.org/2000/svg"
   xmlns:svg="http://www.w3.org/2000/svg">
  <sodipodi:namedview
     id="namedview22007"
     pagecolor="#ffffff"
     bordercolor="#999999"
     borderopacity="1"
     inkscape:pageshadow="0"
     inkscape:pageopacity="0"
     inkscape:pagecheckerboard="0"
     inkscape:document-units="mm"
     showgrid="false"
     inkscape:zoom="7.6257014"
     inkscape:cx="32.390463"
     inkscape:cy="27.997424"
     inkscape:window-width="1360"
     inkscape:window-height="744"
     inkscape:window-x="0"
     inkscape:window-y="16"
     inkscape:window-maximized="0"
     inkscape:current-layer="layer1"
     width="14mm"
     inkscape:showpageshadow="false"
     showborder="false" />
  <defs
     id="defs22002" />
  <g
     inkscape:label="Слой 1"
     inkscape:groupmode="layer"
     id="layer1">
    <path
       id="path23168-2"
       style="fill:#ffffff;fill-opacity:0.992805;stroke:#000000;stroke-width:0;stroke-linecap:butt;stroke-linejoin:miter;stroke-miterlimit:4;stroke-dasharray:none;stroke-opacity:1"
       d="M 6.370059,1.7563774 C 5.3560092,1.7718023 4.3685608,2.3683576 3.9149406,3.583726 2.020074,3.9804392 1.0316643,6.3708522 2.487802,7.9558122 1.8723762,9.9626574 3.570407,11.780605 5.561359,11.383872 c 1.3691606,1.480217 3.8005831,1.06606 4.522306,-0.952306 1.948937,-0.430674 2.836434,-2.7077734 1.417244,-4.3813401 C 12.074927,4.1671807 10.586659,2.2616773 8.4353753,2.636342 7.8641821,2.0433212 7.1100413,1.7451213 6.370059,1.7563774 Z m 0.022866,0.6886523 c 0.6223898,-0.0072 0.9802223,0.204103 1.3037075,0.4437891 L 5.5761504,4.1211332 C 5.3754914,4.232981 5.3632987,4.4059404 5.3734818,4.5861735 L 5.3599211,7.259623 4.4535271,6.7512854 4.4563214,4.2938347 C 4.5162061,3.8646167 4.6485502,3.4632082 4.9373834,3.1219156 5.2507841,2.791785 5.6233464,2.5460462 6.1093279,2.4620512 6.2097103,2.4515484 6.3040126,2.446059 6.392925,2.4450297 Z M 9.0001351,3.263958 c 0.1069407,5.63e-4 0.2153087,0.010094 0.3253052,0.029967 0.4426018,0.1063477 0.8417027,0.3061378 1.1574347,0.6850123 0.474294,0.6534568 0.47643,1.1308921 0.424051,1.5880226 L 8.7794967,4.3467192 C 8.5823047,4.2288681 8.4264089,4.3047957 8.2754143,4.4037309 L 5.9533659,5.7287151 5.9403947,4.6895841 8.0700031,3.4632939 c 0.3012417,-0.12206 0.6093092,-0.201025 0.930132,-0.1993359 z m -5.2136247,1.0660985 0.00695,2.452529 c -0.00347,0.229699 0.1402363,0.3267309 0.3014136,0.4080287 L 6.4033586,8.5390796 5.5099358,9.0698735 3.3831218,7.8387379 C 3.1267941,7.638885 2.9043779,7.4115711 2.7454313,7.1328849 2.6924478,7.0399896 2.6465344,6.9413579 2.6087468,6.8361623 2.4795452,6.3996844 2.4530067,5.9541549 2.623256,5.4912859 2.9520188,4.7538079 3.3644343,4.5132597 3.7865104,4.3300565 Z m 4.6965971,0.6208997 2.1268145,1.2311351 c 0.341771,0.2664712 0.623223,0.5817931 0.774374,1.0025756 0.129202,0.4364784 0.155741,0.8819807 -0.01451,1.3448511 -0.0411,0.092184 -0.08351,0.1766024 -0.127072,0.2541172 -0.304955,0.5426086 -0.666865,0.7468591 -1.036182,0.9071633 l -0.007,-2.4525548 C 10.203027,7.0085447 10.05935,6.9115128 9.8981718,6.830215 L 7.5896588,5.4817496 Z M 6.9739117,5.813771 8.0197335,6.3911427 8.0376265,7.5765969 7.0096719,8.1846535 5.9638249,7.6072818 5.9459575,6.4218277 Z M 8.618741,6.7611293 9.5251349,7.2694669 9.5223421,9.7268921 C 9.477428,10.048806 9.3917753,10.355086 9.229901,10.632082 9.1759433,10.724414 9.1135142,10.813514 9.0413058,10.898837 8.7279051,11.228968 8.3553172,11.474707 7.8693357,11.558701 7.0662796,11.642723 6.6517532,11.405835 6.2820563,11.131908 L 8.4025389,9.8996192 C 8.6031984,9.7877709 8.6153906,9.6148116 8.6052074,9.434579 Z M 8.0258857,8.2875514 8.0388568,9.3266823 5.9092484,10.552998 C 5.5075923,10.715745 5.0937956,10.801832 4.6538114,10.722342 4.2112097,10.615993 3.8121089,10.416205 3.4963761,10.037329 3.4370891,9.955648 3.3851747,9.8767443 3.3398246,9.8002593 3.02239,9.264856 3.0264685,8.8492971 3.0723002,8.4493071 L 5.199755,9.6695472 C 5.396948,9.7873998 5.5528424,9.71147 5.703837,9.6125356 Z" />
  </g>
</svg>
