<?xml version="1.0" encoding="UTF-8" standalone="no"?>
<!-- Created with Inkscape (http://www.inkscape.org/) -->

<svg
   width="14mm"
   height="14mm"
   viewBox="0 0 14 14"
   version="1.1"
   id="svg5"
   inkscape:version="1.1.2 (0a00cf5339, 2022-02-04)"
   sodipodi:docname="codeberg.svg"
   xmlns:inkscape="http://www.inkscape.org/namespaces/inkscape"
   xmlns:sodipodi="http://sodipodi.sourceforge.net/DTD/sodipodi-0.dtd"
   xmlns:xlink="http://www.w3.org/1999/xlink"
   xmlns="http://www.w3.org/2000/svg"
   xmlns:svg="http://www.w3.org/2000/svg">
  <sodipodi:namedview
     id="namedview7"
     pagecolor="#ffffff"
     bordercolor="#999999"
     borderopacity="1"
     inkscape:pageshadow="0"
     inkscape:pageopacity="0"
     inkscape:pagecheckerboard="0"
     inkscape:document-units="mm"
     showgrid="false"
     width="14mm"
     inkscape:showpageshadow="false"
     showborder="false"
     inkscape:zoom="2.8284271"
     inkscape:cx="169.8824"
     inkscape:cy="17.500893"
     inkscape:window-width="1360"
     inkscape:window-height="744"
     inkscape:window-x="0"
     inkscape:window-y="16"
     inkscape:window-maximized="0"
     inkscape:current-layer="layer1" />
  <defs
     id="defs2">
    <linearGradient
       inkscape:collect="always"
       id="linearGradient12504">
      <stop
         style="stop-color:#bad9f0;stop-opacity:1;"
         offset="0"
         id="stop12500" />
      <stop
         style="stop-color:#bad9f0;stop-opacity:0;"
         offset="1"
         id="stop12502" />
    </linearGradient>
    <linearGradient
       inkscape:collect="always"
       xlink:href="#linearGradient12504"
       id="linearGradient15994"
       gradientUnits="userSpaceOnUse"
       gradientTransform="matrix(-0.0675839,-0.08710278,-0.08972462,0.06560902,42.360022,19.215691)"
       x1="154.80342"
       y1="153.95235"
       x2="229.05537"
       y2="153.95235" />
  </defs>
  <g
     inkscape:label="Слой 1"
     inkscape:groupmode="layer"
     id="layer1">
    <g
       id="g16463"
       transform="translate(-7.4451186,-4.3486606)">
      <path
         id="path960-5"
         style="fill:#2185d0;fill-opacity:1;stroke:#f59d33;stroke-width:0;stroke-linecap:round;stroke-linejoin:round;stroke-opacity:0.62174"
         d="m 54.59375,22.339844 a 21.373674,21.373674 0 0 0 -21.371094,21.375 21.373674,21.373674 0 0 0 3.292969,11.36914 L 54.59375,31.585938 63.9375,43.712891 h 0.002 l 12.029297,-0.002 a 21.373674,21.373674 0 0 0 -21.375,-21.371094 z m 9.345703,21.373047 8.748047,11.353515 a 21.373674,21.373674 0 0 0 3.28125,-11.353515 z m 8.244141,12.115234 a 21.373674,21.373674 0 0 1 -1.375,1.75 c 0.478735,-0.552263 0.937872,-1.135269 1.375,-1.75 z m -1.375,1.75 c -0.312725,0.360755 -0.635921,0.702911 -0.964844,1.037109 a 21.373674,21.373674 0 0 0 0.964844,-1.037109 z m -0.964844,1.037109 a 21.373674,21.373674 0 0 1 -0.552734,0.546875 c 0.187098,-0.177187 0.370324,-0.361538 0.552734,-0.546875 z m -0.552734,0.546875 c -0.467132,0.442388 -0.947341,0.862168 -1.441407,1.253907 a 21.373674,21.373674 0 0 0 1.441407,-1.253907 z m -1.441407,1.253907 c -0.794919,0.630281 -1.622942,1.193486 -2.476562,1.693359 a 21.373674,21.373674 0 0 0 2.476562,-1.693359 z m -2.496093,1.705078 c -0.870823,0.508689 -1.770029,0.9502 -2.6875,1.324218 h 0.01563 a 21.373674,21.373674 0 0 0 2.671875,-1.324218 z"
         transform="scale(0.26458333)" />
      <path
         style="fill:url(#linearGradient15994);fill-opacity:1;stroke:#000000;stroke-width:0;stroke-linecap:butt;stroke-linejoin:miter;stroke-miterlimit:4;stroke-dasharray:none;stroke-opacity:1"
         d="m 14.444596,8.3571127 4.787305,6.2125403 c -0.652708,1.00347 -1.563677,1.671033 -2.638866,2.124997 z"
         id="path2229-3"
         sodipodi:nodetypes="cccc" />
    </g>
  </g>
</svg>
