<?xml version="1.0" encoding="UTF-8" standalone="no"?>
<!-- Created with Inkscape (http://www.inkscape.org/) -->

<svg
   width="14mm"
   height="14mm"
   viewBox="0 0 14 14"
   version="1.1"
   id="svg15245"
   inkscape:version="1.1.2 (0a00cf5339, 2022-02-04)"
   sodipodi:docname="deepl.svg"
   xmlns:inkscape="http://www.inkscape.org/namespaces/inkscape"
   xmlns:sodipodi="http://sodipodi.sourceforge.net/DTD/sodipodi-0.dtd"
   xmlns="http://www.w3.org/2000/svg"
   xmlns:svg="http://www.w3.org/2000/svg">
  <sodipodi:namedview
     id="namedview15247"
     pagecolor="#ffffff"
     bordercolor="#999999"
     borderopacity="1"
     inkscape:pageshadow="0"
     inkscape:pageopacity="0"
     inkscape:pagecheckerboard="0"
     inkscape:document-units="mm"
     showgrid="false"
     width="14mm"
     inkscape:showpageshadow="false"
     showborder="false"
     inkscape:zoom="7.6257014"
     inkscape:cx="37.308043"
     inkscape:cy="33.242844"
     inkscape:window-width="1360"
     inkscape:window-height="744"
     inkscape:window-x="0"
     inkscape:window-y="16"
     inkscape:window-maximized="0"
     inkscape:current-layer="layer1" />
  <defs
     id="defs15242" />
  <g
     inkscape:label="Слой 1"
     inkscape:groupmode="layer"
     id="layer1">
    <path
       id="path16214-0"
       style="fill:#052c49;fill-opacity:1;stroke:#000000;stroke-width:0;stroke-linecap:butt;stroke-linejoin:miter;stroke-miterlimit:4;stroke-dasharray:none;stroke-opacity:1"
       d="M 6.9980205,1.806811 6.9114915,1.813601 6.8361205,1.828812 6.7465145,1.859704 6.6451003,1.9148611 6.2540111,2.1306232 5.9232506,2.3051427 4.832465,2.9192742 4.0785871,3.3448172 3.5679674,3.6464667 3.3953915,3.7454526 3.2211943,3.867728 3.1040926,3.9759346 3.0434416,4.076861 2.985861,4.2148266 2.9586935,4.3379095 2.9456106,4.46698 l -0.00282,3.833762 0.00454,0.1520376 0.027512,0.1143505 0.085721,0.1334366 c 0,0 0.1032238,0.1089014 0.105133,0.1171018 0.00188,0.0082 0.1064257,0.093809 0.1064257,0.093809 l 0.4813427,0.2806229 1.2822879,0.7412613 1.0645822,0.5969893 1.5106666,0.871784 1.3058998,0.75954 0.043671,0.02069 0.03348,0.01083 0.021346,-0.01036 0.00729,-0.03024 -0.010986,-2.1679843 0.00567,-0.041728 0.00567,-0.037039 0.023787,-0.034451 0.034451,-0.030579 0.91238,-0.5229074 0.2477875,-0.1369953 0.279812,-0.1470235 0.230482,-0.1452425 0.156726,-0.1551111 0.07942,-0.1188795 0.05208,-0.1242191 0.01506,-0.1297152 0.0022,-3.6780031 -0.0037,-0.2639624 -0.03154,-0.1874585 -0.0558,-0.129878 c 0,0 -0.09374,-0.1327887 -0.101412,-0.1433051 C 10.857097,3.9475965 10.70542,3.8309862 10.70542,3.8309862 L 7.8186559,2.1621349 7.4497232,1.9458877 7.2627498,1.8499753 7.1650565,1.82021 7.0760988,1.8095371 Z M 5.7566559,4.1211709 a 0.7198746,0.7198746 0 0 1 0.7199124,0.7199123 0.7198746,0.7198746 0 0 1 -0.0118,0.1269672 L 8.1127529,5.9187671 A 0.7198746,0.7198746 0 0 1 8.5850408,5.7413367 0.7198746,0.7198746 0 0 1 9.3051128,6.4610863 0.7198746,0.7198746 0 0 1 8.5852005,7.1809987 0.7198746,0.7198746 0 0 1 7.8652912,6.4612491 0.7198746,0.7198746 0 0 1 7.8795322,6.3210175 L 7.8701426,6.3366982 6.242537,5.3719095 A 0.7198746,0.7198746 0 0 1 5.7566653,5.5609831 0.7198746,0.7198746 0 0 1 5.036753,4.8410738 0.7198746,0.7198746 0 0 1 5.7566653,4.1211615 Z m 1.6973145,2.6968794 c 0.00554,0.1799468 0.082701,0.3243694 0.2351737,0.4313647 l -1.214194,0.6786666 a 0.7198746,0.7198746 0 0 1 0.016995,0.1538153 H 6.199839 l -1.659e-4,1.659e-4 H 6.4919423 A 0.7198746,0.7198746 0 0 1 5.7720299,8.8018156 0.7198746,0.7198746 0 0 1 5.0521176,8.0820628 0.7198746,0.7198746 0 0 1 5.7720299,7.3621505 0.7198746,0.7198746 0 0 1 6.2257138,7.5234087 Z" />
  </g>
</svg>
