<?xml version="1.0" encoding="UTF-8" standalone="no"?>
<!-- Created with Inkscape (http://www.inkscape.org/) -->

<svg
   width="14mm"
   height="14mm"
   viewBox="0 0 14 14"
   version="1.1"
   id="svg5"
   inkscape:version="1.1.2 (0a00cf5339, 2022-02-04)"
   sodipodi:docname="lnkbio.svg"
   xmlns:inkscape="http://www.inkscape.org/namespaces/inkscape"
   xmlns:sodipodi="http://sodipodi.sourceforge.net/DTD/sodipodi-0.dtd"
   xmlns="http://www.w3.org/2000/svg"
   xmlns:svg="http://www.w3.org/2000/svg">
  <sodipodi:namedview
     id="namedview7"
     pagecolor="#ffffff"
     bordercolor="#999999"
     borderopacity="1"
     inkscape:pageshadow="0"
     inkscape:pageopacity="0"
     inkscape:pagecheckerboard="0"
     inkscape:document-units="mm"
     showgrid="false"
     width="14mm"
     inkscape:showpageshadow="false"
     showborder="false"
     inkscape:zoom="1.4085194"
     inkscape:cx="-53.957368"
     inkscape:cy="135.95837"
     inkscape:window-width="1360"
     inkscape:window-height="744"
     inkscape:window-x="0"
     inkscape:window-y="16"
     inkscape:window-maximized="0"
     inkscape:current-layer="layer1" />
  <defs
     id="defs2" />
  <g
     inkscape:label="Слой 1"
     inkscape:groupmode="layer"
     id="layer1">
    <path
       style="fill:#d5c0fa;fill-opacity:1;stroke:#000000;stroke-width:0;stroke-linecap:butt;stroke-linejoin:miter;stroke-miterlimit:4;stroke-dasharray:none;stroke-opacity:1"
       d="M 7.1207402,6.7069306 C 6.8218669,6.4624327 6.9768057,6.2848668 7.0716101,6.0753359 7.1793852,5.9283895 7.3047884,5.8098214 7.4326462,5.6952067 7.6217904,5.5230308 7.7257323,5.6071218 7.8287274,5.6919001 8.2380868,6.0223229 8.4860681,6.3851891 8.6232035,6.7843962 8.9496347,7.7566234 8.670923,8.479621 8.1886575,9.1187855 7.7198471,9.5697313 7.2715367,10.033427 6.7773905,10.468616 6.2370244,10.790491 5.6660032,11.07535 4.5880476,10.748079 4.1902796,10.57089 3.8058181,10.356159 3.50976,9.8920047 3.1916655,9.3972385 2.942939,8.8372372 3.2208531,7.7819722 3.3502,7.4597746 3.5319627,7.1816874 3.75806,6.9409095 L 4.2790927,6.424424 C 4.5389336,6.1753497 4.7154309,6.3269682 4.767164,6.5988701 4.7695459,6.8400384 4.8154774,7.0547902 4.8905486,7.2518671 4.942826,7.5590459 4.8950974,7.6101745 4.763758,7.7025449 4.3929026,8.0285138 4.2622469,8.4470122 4.3937737,8.9665073 4.5020394,9.2602065 4.7291679,9.5108751 5.2071052,9.6707447 5.6330791,9.7184695 5.9656808,9.5498283 6.3160858,9.239721 6.6762507,8.8688984 7.0335708,8.5733048 7.3923045,8.0722669 7.5378127,7.662191 7.6961354,7.2622652 7.1207402,6.7069314 Z"
       id="path1066"
       sodipodi:nodetypes="ccccccccccccccccccccc" />
    <path
       style="fill:#ffffff;fill-opacity:1;stroke:#000000;stroke-width:0;stroke-linecap:butt;stroke-linejoin:miter;stroke-miterlimit:4;stroke-dasharray:none;stroke-opacity:1"
       d="M 6.8692595,7.2942999 C 7.1681329,7.5387978 7.013194,7.7163636 6.9183896,7.9258945 6.8106146,8.0728409 6.6852114,8.191409 6.5573538,8.3060238 6.3682095,8.4781996 6.2642677,8.3941087 6.1612726,8.3093303 5.7519131,7.9789076 5.5039319,7.6160414 5.3667965,7.2168343 5.0403653,6.2446071 5.319077,5.5216095 5.8013425,4.8824449 6.2701529,4.4314992 6.7184631,3.9678033 7.2126093,3.5326143 7.7529755,3.2107393 8.3239964,2.9258806 9.401952,3.2531514 c 0.3977681,0.1771889 0.78223,0.39192 1.078288,0.8560743 0.318094,0.4947662 0.566821,1.0547675 0.288907,2.1100325 -0.129348,0.3221977 -0.31111,0.6002848 -0.537208,0.8410628 L 9.7109066,7.5768065 C 9.451066,7.8258807 9.2745687,7.6742623 9.2228354,7.4023604 9.2047243,7.1745309 9.1572061,6.9596865 9.0994514,6.7493634 9.0471739,6.4421846 9.0949048,6.391056 9.2262415,6.2986856 9.597097,5.9727167 9.7277525,5.5542182 9.596226,5.0347232 9.4879603,4.741024 9.2608319,4.4903554 8.7828948,4.3304858 8.3569205,4.282761 8.0243186,4.4514022 7.6739141,4.7615094 7.313749,5.1323321 6.956429,5.4279256 6.5976954,5.9289636 6.4521872,6.3390395 6.2938645,6.7389653 6.8692595,7.2942991 Z"
       id="path1066-3"
       sodipodi:nodetypes="ccccccccccccccccccccc" />
  </g>
</svg>
