<?xml version="1.0" encoding="UTF-8" standalone="no"?>
<svg
   height="14"
   width="14"
   viewBox="-0.5 -0.5 1.6856 1.6934441"
   version="1.1"
   id="svg33308"
   sodipodi:docname="veoh.svg"
   inkscape:version="1.1.2 (0a00cf5339, 2022-02-04)"
   xmlns:inkscape="http://www.inkscape.org/namespaces/inkscape"
   xmlns:sodipodi="http://sodipodi.sourceforge.net/DTD/sodipodi-0.dtd"
   xmlns:xlink="http://www.w3.org/1999/xlink"
   xmlns="http://www.w3.org/2000/svg"
   xmlns:svg="http://www.w3.org/2000/svg">
  <defs
     id="defs33312" />
  <sodipodi:namedview
     id="namedview33310"
     pagecolor="#ffffff"
     bordercolor="#999999"
     borderopacity="1"
     inkscape:pageshadow="0"
     inkscape:pageopacity="0"
     inkscape:pagecheckerboard="0"
     showgrid="false"
     width="14px"
     height="14px"
     inkscape:showpageshadow="false"
     showborder="false"
     inkscape:zoom="24.510018"
     inkscape:cx="10.709906"
     inkscape:cy="9.15952"
     inkscape:window-width="1360"
     inkscape:window-height="744"
     inkscape:window-x="0"
     inkscape:window-y="16"
     inkscape:window-maximized="0"
     inkscape:current-layer="svg33308" />
  <linearGradient
     id="b"
     gradientTransform="matrix(0,-1.6425837e-4,1.1123008e-4,0,-53.263152,-45.440764)"
     gradientUnits="userSpaceOnUse"
     x1="-282692.03"
     x2="-274791.97"
     y1="481965.91"
     y2="481965.91">
    <stop
       offset="0"
       stop-color="#d3edf4"
       id="stop33271" />
    <stop
       offset=".483"
       stop-color="#059ad3"
       id="stop33273" />
    <stop
       offset=".531"
       stop-color="#059ad3"
       id="stop33275" />
  </linearGradient>
  <linearGradient
     id="a">
    <stop
       offset="0"
       stop-color="#a3aeb8"
       id="stop33278" />
    <stop
       offset="1"
       stop-color="#eaebec"
       id="stop33280" />
  </linearGradient>
  <linearGradient
     id="c"
     gradientUnits="userSpaceOnUse"
     x1="55.248001"
     x2="55.248001"
     xlink:href="#a"
     y1="100.077"
     y2="34.985001" />
  <linearGradient
     id="d"
     gradientTransform="matrix(0,-0.0117,0.0086,0,-3979.06,-3471.14)"
     gradientUnits="userSpaceOnUse"
     x1="-305343.56"
     x2="-297443.56"
     xlink:href="#a"
     y1="476029.88"
     y2="476029.88" />
  <linearGradient
     id="e"
     gradientTransform="matrix(0,-0.0115,0.0114,0,-3941.91,-3470.53)"
     gradientUnits="userSpaceOnUse"
     x1="-310449.72"
     x2="-302549.78"
     xlink:href="#a"
     y1="367481.94"
     y2="367481.94" />
  <path
     d="m 0.82921173,-0.13657241 c -0.137201,-0.13721395 -0.29310419,-0.19956746 -0.48638585,-0.19956746 -0.18707347,0 -0.34921071,0.0623535 -0.48019059,0.19956746 -0.13095402,0.13099281 -0.19956745,0.29310419 -0.19956745,0.48638585 0,0.1870864 0.0686005,0.34928831 0.19956745,0.48020352 0.13097988,0.13099282 0.29313006,0.19956744 0.48019059,0.19956744 0.19328166,0 0.34918485,-0.0685746 0.48638585,-0.19956744 C 0.96017868,0.69910175 1.0225322,0.53689984 1.0225322,0.34981344 c 0,-0.19328166 -0.0623535,-0.35539304 -0.19332047,-0.48638585 z"
     fill="#059ad3"
     opacity="0.4"
     id="path33288"
     style="stroke-width:0.0129337" />
  <path
     d="m 0.34281295,-0.09911633 c -0.11851177,0 -0.22449075,0.0435996 -0.31805336,0.12471996 -0.08728974,0.08727681 -0.13095401,0.19951572 -0.13095401,0.32420981 0,0.11849883 0.04366427,0.22454248 0.13095401,0.31809215 0.09354967,0.0810427 0.19954159,0.12471996 0.31805336,0.12471996 0.12471996,0 0.23069894,-0.0436772 0.31800162,-0.12471996 0.0873415,-0.0935367 0.13097988,-0.19959332 0.13097988,-0.31809215 0,-0.12469409 -0.0436384,-0.23694594 -0.13097988,-0.32420981 -0.0873027,-0.08113329 -0.19328166,-0.12471996 -0.31800162,-0.12471996 z"
     fill="#059ad3"
     id="path33290"
     style="stroke-width:0.0129337" />
  <path
     d="m 0.34281295,-0.08669995 c -0.11851177,0 -0.22449075,0.03745608 -0.30559817,0.12471996 -0.08728975,0.08112035 -0.13094109,0.18709934 -0.13094109,0.31179343 0,0.11849883 0.04365134,0.22454248 0.13094109,0.3056111 0.08110742,0.0810427 0.1870864,0.12473289 0.30559817,0.12473289 0.11847297,0 0.22446488,-0.0436901 0.31178049,-0.12473289 0.0810686,-0.0810686 0.13095402,-0.18711227 0.13095402,-0.3056111 0,-0.12469409 -0.0498854,-0.23066014 -0.13095402,-0.31179343 -0.0873027,-0.08726388 -0.19330752,-0.12471996 -0.31178049,-0.12471996 z"
     fill="url(#b)"
     id="path33292"
     style="fill:url(#b);stroke-width:0.0129337" />
  <path
     d="M 0.76061123,0.2562767 C 0.73566206,0.16273997 0.68580254,0.08167135 0.61098091,0.01933077 0.53610754,-0.04303568 0.44257081,-0.0742189 0.34282588,-0.0742189 c -0.0997837,0 -0.18707347,0.03118322 -0.26816795,0.09354967 -0.06861344,0.06234058 -0.12471996,0.1434092 -0.14339627,0.23694593 -0.01249398,0.006273 0,0.0187668 0.03117029,0.0311832 L 0.33657889,0.3186302 0.72324568,0.2874599 c 0.0311315,-0.0124164 0.0435996,-0.0249104 0.0373655,-0.0311832 z"
     fill="#d3edf4"
     opacity="0.4"
     id="path33294"
     style="stroke-width:0.0129337" />
  <path
     d="m 0.32408491,0.25006851 c -0.0186763,-0.0187022 -0.0311962,-0.0187022 -0.0311962,0 v 0.23073774 c 0,0.012494 0.0125198,0.012494 0.0311962,0 l 0.13096695,-0.0998225 c 0.006234,-0.0124164 0.006234,-0.0249104 0,-0.0311832 z"
     fill="#ffffff"
     id="path33296"
     style="stroke-width:0.0129337" />
</svg>
